<svg width="150" height="50" viewBox="0 0 305 150" fill="none" xmlns="http://www.w3.org/2000/svg">
<rect width="100" height="150" rx="50" fill="#93D2FF"/>
<path d="M79.55 52.5698V115.14H21V35H64.44L74.6 46.814L79.55 52.5698Z" fill="#92E3A9" stroke="#263238" stroke-linecap="round" stroke-linejoin="round"/>
<path d="M34.02 47.0464H71.99" stroke="#263238" stroke-linecap="round" stroke-linejoin="round"/>
<path d="M28.68 55.0581H71.99" stroke="#263238" stroke-linecap="round" stroke-linejoin="round"/>
<path d="M28.68 63.0815H71.99" stroke="#263238" stroke-linecap="round" stroke-linejoin="round"/>
<path d="M28.68 71.093H71.99" stroke="#263238" stroke-linecap="round" stroke-linejoin="round"/>
<path d="M28.68 79.1165H71.99" stroke="#263238" stroke-linecap="round" stroke-linejoin="round"/>
<path d="M28.68 87.1279H71.99" stroke="#263238" stroke-linecap="round" stroke-linejoin="round"/>
<path d="M28.68 95.1394H71.99" stroke="#263238" stroke-linecap="round" stroke-linejoin="round"/>
<path d="M28.68 103.163H66.65" stroke="#263238" stroke-linecap="round" stroke-linejoin="round"/>
<path d="M79.55 52.5698H64.44V35L74.6 46.814L79.55 52.5698Z" fill="#92E3A9" stroke="#263238" stroke-linecap="round" stroke-linejoin="round"/>
<path d="M104.224 93V59.4H111.52L123.76 79.32L118.528 79.272L130.912 59.4H137.92V93H130V82.536C130 79.656 130.064 77.064 130.192 74.76C130.352 72.456 130.608 70.168 130.96 67.896L131.872 70.392L122.56 84.84H119.392L110.272 70.488L111.184 67.896C111.536 70.04 111.776 72.248 111.904 74.52C112.064 76.76 112.144 79.432 112.144 82.536V93H104.224ZM155.053 93V76.248L155.389 78.6L141.805 59.4H151.069L161.437 74.28L157.213 74.136L166.573 59.4H175.549L162.541 79.128L163.261 75.864V93H155.053ZM179.458 93V59.4H193.954C196.066 59.4 197.938 59.88 199.57 60.84C201.234 61.8 202.546 63.112 203.506 64.776C204.498 66.44 204.994 68.312 204.994 70.392C204.994 72.568 204.498 74.52 203.506 76.248C202.546 77.944 201.234 79.288 199.57 80.28C197.938 81.272 196.066 81.768 193.954 81.768H187.618V93H179.458ZM187.474 74.616H192.802C193.506 74.616 194.146 74.44 194.722 74.088C195.298 73.736 195.762 73.256 196.114 72.648C196.466 72.04 196.642 71.336 196.642 70.536C196.642 69.704 196.466 69 196.114 68.424C195.762 67.848 195.298 67.4 194.722 67.08C194.146 66.76 193.506 66.6 192.802 66.6H187.474V74.616ZM203.827 93L217.123 59.4H224.035L237.235 93H228.979L222.643 75.96C222.387 75.288 222.131 74.568 221.875 73.8C221.619 73.032 221.363 72.248 221.107 71.448C220.851 70.616 220.595 69.816 220.339 69.048C220.115 68.248 219.923 67.512 219.763 66.84L221.203 66.792C221.011 67.592 220.787 68.376 220.531 69.144C220.307 69.912 220.067 70.68 219.811 71.448C219.587 72.184 219.331 72.936 219.043 73.704C218.755 74.44 218.483 75.208 218.227 76.008L211.891 93H203.827ZM210.163 86.568L212.707 80.424H228.163L230.659 86.568H210.163ZM256.09 93.48C253.402 93.48 250.97 93.048 248.794 92.184C246.618 91.32 244.746 90.104 243.178 88.536C241.61 86.968 240.41 85.128 239.578 83.016C238.746 80.872 238.33 78.552 238.33 76.056C238.33 73.56 238.762 71.272 239.626 69.192C240.522 67.08 241.786 65.24 243.418 63.672C245.05 62.104 246.97 60.888 249.178 60.024C251.418 59.16 253.85 58.728 256.474 58.728C258.33 58.728 260.074 58.968 261.706 59.448C263.37 59.928 264.874 60.584 266.218 61.416C267.562 62.248 268.698 63.208 269.626 64.296L264.682 69.528C263.882 68.76 263.05 68.12 262.186 67.608C261.354 67.096 260.458 66.696 259.498 66.408C258.538 66.088 257.514 65.928 256.426 65.928C255.018 65.928 253.722 66.184 252.538 66.696C251.386 67.208 250.362 67.928 249.466 68.856C248.602 69.752 247.93 70.824 247.45 72.072C246.97 73.288 246.73 74.616 246.73 76.056C246.73 77.496 246.986 78.84 247.498 80.088C248.01 81.336 248.714 82.424 249.61 83.352C250.506 84.248 251.562 84.968 252.778 85.512C254.026 86.024 255.354 86.28 256.762 86.28C257.754 86.28 258.682 86.12 259.546 85.8C260.442 85.48 261.21 85.048 261.85 84.504C262.49 83.96 263.002 83.32 263.386 82.584C263.77 81.816 263.962 81 263.962 80.136V78.888L265.018 80.52H255.754V74.136H271.546C271.61 74.488 271.658 74.968 271.69 75.576C271.722 76.184 271.738 76.776 271.738 77.352C271.77 77.928 271.786 78.36 271.786 78.648C271.786 80.824 271.386 82.824 270.586 84.648C269.818 86.44 268.73 87.992 267.322 89.304C265.914 90.616 264.25 91.64 262.33 92.376C260.41 93.112 258.33 93.48 256.09 93.48ZM278.037 93V59.4H301.461V66.36H285.957V86.04H301.941V93H278.037ZM281.877 79.224V72.6H299.301V79.224H281.877Z" fill="black"/>
</svg>
